<?xml version="1.0" encoding="UTF-8"?>
<svg id="Layer_2" data-name="Layer 2" xmlns="http://www.w3.org/2000/svg" viewBox="0 0 626 422.08">
  <defs>
    <style>
      .cls-1 {
        fill: #ff0624;
      }
    </style>
  </defs>
  <g id="Layer_1-2" data-name="Layer 1">
    <path class="cls-1" d="m536.55,207.6c27.4-8.22,42.76-26.75,42.76-52.65v-.59c0-28.26-16.06-42.53-41.34-50.86,18.44-8.03,32.12-22.31,32.12-46.39v-.6c0-14.27-5.06-25.28-13.38-33.6-12.2-12.2-30.64-18.74-56.81-18.74h-106.77v128.36c-6.31-14.43-19.48-23.19-37.19-29.03,18.44-8.03,32.12-22.31,32.12-46.39v-.6c0-14.27-5.06-25.28-13.39-33.6-12.19-12.2-30.63-18.74-56.8-18.74h-106.77v70.38C196.9,31.31,156.18,0,108.25,0,48.56,0,0,48.56,0,108.26s48.56,108.26,108.25,108.26c47.92,0,88.65-31.31,102.86-74.55v275.95h79.11c62.43,0,103.16-30.97,115.03-76.02,12.07,46.32,54.3,80.19,108.32,80.19,64.24,0,112.42-48.48,112.42-108.26v-.59c0-52.6-36.84-95.97-89.45-105.63m-364.8-58.05c-13.52,20.74-36.9,34.46-63.5,34.46-41.84,0-75.75-33.91-75.75-75.75S66.42,32.51,108.26,32.51c20.92,0,39.85,8.48,53.56,22.19l-20.77,20.77c-8.39-8.39-19.98-13.58-32.79-13.58-25.62,0-46.38,20.77-46.38,46.37s20.77,46.38,46.38,46.38c12.66,0,24.13-5.07,32.49-13.29v-16.42h-32.2v-27.7h63.2v52.33Zm233.85,135.67c-9.41-37.57-38.86-64.74-84.29-72.91,37.17-.64,62.38-13.73,71.82-35.91v35.95h80.97c-33.99,12.06-59.27,39.19-68.5,72.87"/>
  </g>
</svg>