<?xml version="1.0" encoding="UTF-8"?>
<svg id="Layer_2" data-name="Layer 2" xmlns="http://www.w3.org/2000/svg" viewBox="0 0 1742.71 1742.71">
  <defs>
    <style>
      .cls-1 {
        fill: #1c1c1c;
      }

      .cls-1, .cls-2 {
        font-family: N27-Bold, N27;
        font-size: 226.33px;
        font-weight: 700;
      }
    </style>
  </defs>
  <g id="Layer_1-2" data-name="Layer 1">
    <text class="cls-1" transform="translate(725.97 207.21) rotate(-9.63)"><tspan x="0" y="0">ยก</tspan></text>
    <text class="cls-1" transform="translate(782.54 194.39) rotate(-1.46)"><tspan x="0" y="0">P</tspan></text>
    <text class="cls-1" transform="translate(918.91 192.68) rotate(7.49)"><tspan x="0" y="0">r</tspan></text>
    <text class="cls-1" transform="translate(993.4 200.47) rotate(15.43)"><tspan x="0" y="0">o</tspan></text>
    <text class="cls-1" transform="translate(1105.52 230.89) rotate(25.24)"><tspan x="0" y="0">n</tspan></text>
    <text class="cls-1" transform="translate(1210.36 281.4) rotate(33.48)"><tspan x="0" y="0">t</tspan></text>
    <text class="cls-1" transform="translate(1277.18 323.5) rotate(41.7)"><tspan x="0" y="0">o</tspan></text>
    <text class="cls-1" transform="translate(1363.92 403.46) rotate(48.34)"><tspan x="0" y="0"> </tspan></text>
    <text class="cls-1" transform="translate(1392.27 433.76) rotate(53.48)"><tspan x="0" y="0">r</tspan></text>
    <text class="cls-1" transform="translate(1438.41 492.75) rotate(61.37)"><tspan x="0" y="0">e</tspan></text>
    <text class="cls-1" transform="translate(1494.57 594.48) rotate(71.2)"><tspan x="0" y="0">g</tspan></text>
    <text class="cls-1" transform="translate(1531.32 705.54) rotate(79.52)"><tspan x="0" y="0">r</tspan></text>
    <text class="cls-1" transform="translate(1546.86 778.82) rotate(87.4)"><tspan x="0" y="0">e</tspan></text>
    <text class="cls-1" transform="translate(1552.39 895.13) rotate(96.8)"><tspan x="0" y="0">s</tspan></text>
    <text class="cls-1" transform="translate(1540.23 1004.02) rotate(106.34)"><tspan x="0" y="0">a</tspan></text>
    <text class="cls-1" transform="translate(1512.17 1115.77) rotate(118.91)"><tspan x="0" y="0">m</tspan></text>
    <text class="cls-1" transform="translate(1421.58 1273.96) rotate(131.37)"><tspan x="0" y="0">o</tspan></text>
    <text class="cls-1" transform="translate(1344.84 1361.44) rotate(140.82)"><tspan x="0" y="0">s</tspan></text>
    <text class="cls-1" transform="translate(1258.02 1430.46) rotate(147.93)"><tspan x="0" y="0">!</tspan></text>
    <text class="cls-1" transform="translate(1207 1462.16) rotate(152.24)"><tspan x="0" y="0"> </tspan></text>
    <text class="cls-1" transform="translate(1169.5 1481.98) rotate(155.83)"><tspan x="0" y="0"> </tspan></text>
    <text class="cls-1" transform="translate(1130.85 1499.41) rotate(159.43)"><tspan x="0" y="0"> </tspan></text>
    <text class="cls-1" transform="translate(1091.15 1514.39) rotate(163.04)"><tspan x="0" y="0"> </tspan></text>
    <text class="cls-1" transform="translate(1050.6 1526.83) rotate(166.64)"><tspan x="0" y="0"> </tspan></text>
    <text class="cls-1" transform="translate(1009.88 1536.96) rotate(170.97)"><tspan x="0" y="0">ยก</tspan></text>
    <text class="cls-1" transform="translate(953.15 1549.12) rotate(179.07)"><tspan x="0" y="0">P</tspan></text>
    <text class="cls-1" transform="translate(816.8 1549.51) rotate(-171.92)"><tspan x="0" y="0">r</tspan></text>
    <text class="cls-1" transform="translate(742.4 1540.95) rotate(-163.98)"><tspan x="0" y="0">o</tspan></text>
    <text class="cls-1" transform="translate(630.59 1509.36) rotate(-154.16)"><tspan x="0" y="0">n</tspan></text>
    <text class="cls-1" transform="translate(526.3 1457.78) rotate(-145.93)"><tspan x="0" y="0">t</tspan></text>
    <text class="cls-1" transform="translate(459.91 1414.98) rotate(-137.71)"><tspan x="0" y="0">o</tspan></text>
    <text class="cls-1" transform="translate(373.97 1334.12) rotate(-131.07)"><tspan x="0" y="0"> </tspan></text>
    <text class="cls-1" transform="translate(345.95 1303.54) rotate(-125.93)"><tspan x="0" y="0">r</tspan></text>
    <text class="cls-1" transform="translate(300.41 1244.07) rotate(-118.03)"><tspan x="0" y="0">e</tspan></text>
    <text class="cls-1" transform="translate(245.32 1141.79) rotate(-108.2)"><tspan x="0" y="0">g</tspan></text>
    <text class="cls-1" transform="translate(209.72 1030.35) rotate(-99.89)"><tspan x="0" y="0">r</tspan></text>
    <text class="cls-1" transform="translate(194.94 956.88) rotate(-92.02)"><tspan x="0" y="0">e</tspan></text>
    <text class="cls-1" transform="translate(190.59 840.56) rotate(-82.61)"><tspan x="0" y="0">s</tspan></text>
    <text class="cls-1" transform="translate(203.88 731.78) rotate(-73.06)"><tspan x="0" y="0">a</tspan></text>
    <text class="cls-1" transform="translate(233.09 620.36) rotate(-60.5)"><tspan x="0" y="0">m</tspan></text>
    <text class="cls-1" transform="translate(325.32 463.1) rotate(-48.05)"><tspan x="0" y="0">o</tspan></text>
    <text class="cls-1" transform="translate(402.96 376.41) rotate(-38.59)"><tspan x="0" y="0">s</tspan></text>
    <text class="cls-1" transform="translate(490.47 308.28) rotate(-31.48)"><tspan x="0" y="0">!</tspan></text>
    <text class="cls-1" transform="translate(541.82 277.12) rotate(-27.17)"><tspan x="0" y="0"> </tspan></text>
    <text class="cls-2" transform="translate(579.52 257.68) rotate(-23.57)"><tspan x="0" y="0"> </tspan></text>
  </g>
</svg>