<?xml version="1.0" encoding="UTF-8"?>
<svg id="Layer_2" data-name="Layer 2" xmlns="http://www.w3.org/2000/svg" viewBox="0 0 45.67 45.67">
  <defs>
    <style>
      .cls-1 {
        fill: #fff;
      }
    </style>
  </defs>
  <g id="Capa_1" data-name="Capa 1">
    <path class="cls-1" d="m22.83,0C10.24,0,0,10.24,0,22.83s10.24,22.83,22.83,22.83,22.83-10.24,22.83-22.83S35.42,0,22.83,0m13.39,31.54c-2.85,4.37-7.78,7.27-13.39,7.27-8.82,0-15.98-7.15-15.98-15.98s7.15-15.98,15.98-15.98c4.41,0,8.41,1.79,11.3,4.68l-4.38,4.38c-1.77-1.77-4.21-2.87-6.92-2.87-5.4,0-9.78,4.38-9.78,9.78s4.38,9.78,9.78,9.78c2.67,0,5.09-1.07,6.85-2.8v-3.46h-6.79v-5.84h13.33v11.04Z"/>
  </g>
</svg>